<?xml version="1.0" encoding="UTF-8"?>
<svg id="Layer_1" xmlns="http://www.w3.org/2000/svg" xmlns:xlink="http://www.w3.org/1999/xlink" version="1.1" viewBox="0 0 243.9 243.9">
  <!-- Generator: Adobe Illustrator 29.3.1, SVG Export Plug-In . SVG Version: 2.1.0 Build 151)  -->
  <defs>
    <style>
      .st0 {
        fill: #555;
      }
    </style>
  </defs>
  <path class="st0" d="M45.2,211v-61.4c3.3.3,7.1.5,11.3.5,25.7,0,46.4-6.8,60-19.6,11.1-10.6,17.3-26.4,17.3-44.4s-7.3-33.4-20.1-43.5c-12.6-10-31-14.9-56.4-14.9s-40.6,1.3-55.3,3.8c-1.2.2-2.1,1.2-2.1,2.5v177.1c0,1.4,1.1,2.5,2.5,2.5h40.2c1.4,0,2.5-1.1,2.5-2.5ZM45.2,113.3v-48.9c2.5-.5,7.1-1.1,14.3-1.1,18.6,0,29.2,8.7,29.2,23.9s-12.1,26.8-32.4,26.8c-4.9,0-8.3-.2-11.1-.6Z"/>
  <path class="st0" d="M206.8,129c-16.6-5.8-19.4-8.6-19.4-12.6,0-7.1,8.1-8.2,12.9-8.2,10.3,0,21,3.9,27,7.2.7.4,1.5.4,2.2,0,.7-.3,1.2-.9,1.4-1.7l7.2-28c.3-1.1-.2-2.3-1.3-2.9-7.5-3.7-21.3-7.7-37.9-7.7-32.7,0-55.5,18.5-55.5,45.1-.2,12.9,6.3,30.6,38.7,41.6,15.7,5.2,17.5,8,17.5,12.5s0,8.4-14.8,8.4-26.1-4.9-33.6-9.5c-.7-.4-1.5-.5-2.3-.2-.7.3-1.3.9-1.5,1.7l-7.2,29c-.3,1.1.2,2.3,1.2,2.8,11,5.9,26.8,9.4,43.3,9.4,36.4,0,59-17.1,59-44.6-.3-20.7-11.7-33.8-37.1-42.5Z"/>
</svg>