<?xml version="1.0" encoding="UTF-8"?>
<svg id="Layer_1" xmlns="http://www.w3.org/2000/svg" xmlns:xlink="http://www.w3.org/1999/xlink" version="1.1" viewBox="0 0 231.6 231.6">
  <!-- Generator: Adobe Illustrator 29.3.1, SVG Export Plug-In . SVG Version: 2.1.0 Build 151)  -->
  <defs>
    <style>
      .st0 {
        fill: #555;
      }
    </style>
  </defs>
  <path class="st0" d="M2.5,211.8h42.1c1.1,0,2.1-.7,2.4-1.8l12.3-44.2h47.6l13.3,44.3c.3,1.1,1.3,1.8,2.4,1.8h43.7c1.4,0,2.5-1.1,2.5-2.5s0-.7-.2-1L113,29c-.3-1-1.3-1.8-2.4-1.8h-53.3c-1.1,0-2.1.7-2.4,1.8L.1,208.5c-.2.8,0,1.6.4,2.2.5.6,1.2,1,2,1ZM99.6,130.3h-33l9.8-34.9c1.8-6.3,3.4-13.7,5.1-20.9.4-1.7.7-3.3,1.1-4.9,2.1,8.6,4.5,17.9,6.9,25.8l10.2,34.9Z"/>
  <path class="st0" d="M187.3,76.6c-1.4,0-2.5,1.1-2.5,2.5v130.2c0,1.4,1.1,2.5,2.5,2.5h40.5c1.4,0,2.5-1.1,2.5-2.5V79.1c0-1.4-1.1-2.5-2.5-2.5h-40.5Z"/>
  <path class="st0" d="M207.3,65.6c14.1,0,24.3-9.6,24.3-22.8-.3-13.5-10.2-22.9-24.1-22.9s-13.4,2.4-17.7,6.9c-4.1,4.2-6.2,9.9-6.1,16.1-.1,6,2,11.7,6.1,15.8,4.3,4.4,10.5,6.9,17.4,6.9Z"/>
</svg>