<?xml version="1.0" encoding="UTF-8"?>
<svg id="Capa_1" xmlns="http://www.w3.org/2000/svg" xmlns:xlink="http://www.w3.org/1999/xlink" version="1.1" viewBox="0 0 512 512">
  <!-- Generator: Adobe Illustrator 29.3.1, SVG Export Plug-In . SVG Version: 2.1.0 Build 151)  -->
  <defs>
    <style>
      .st0 {
        stroke: #fff;
        stroke-miterlimit: 10;
      }

      .st0, .st1 {
        fill: #555;
      }
    </style>
  </defs>
  <g id="Group">
    <g id="Rectangle_55_x5F_2">
      <path class="st0" d="M390.6,175.9c26.1-17.1,43.3-46.6,43.3-80.1C434,43,391,0,338.2,0h-164.4C121,0,78,43,78,95.8s17.2,63,43.3,80.1c-26.1,17.1-43.3,46.6-43.3,80.1s17.2,63,43.3,80.1c-26.1,17.1-43.3,46.6-43.3,80.1,0,52.8,43.2,95.8,96.3,95.8s97.4-43.4,97.4-96.8v-88.3c17,15.5,39.6,25,64.4,25h2.1c52.8,0,95.8-43,95.8-95.8,0-33.5-17.2-63-43.3-80.1ZM271.7,31.4h66.5c35.5,0,64.4,28.9,64.4,64.4s-28.9,64.4-64.4,64.4h-66.5V31.4ZM109.4,95.8c0-35.5,28.9-64.4,64.4-64.4h66.5v128.8h-66.5c-35.5,0-64.4-28.9-64.4-64.4ZM109.4,256c0-35.5,28.9-64.4,64.4-64.4h66.5v128.8h-66.9c-35.3-.2-64-29-64-64.4ZM240.3,415.2c0,36.1-29.6,65.4-66,65.4s-64.9-28.9-64.9-64.4,28.9-64.4,64.4-64.4h66.5v63.4h0ZM338.2,320.4h-2.1c-35.5,0-64.4-28.9-64.4-64.4s28.9-64.4,64.4-64.4h2.1c35.5,0,64.4,28.9,64.4,64.4s-28.9,64.4-64.4,64.4Z"/>
    </g>
    <g id="Rectangle_55_x5F_4">
      <path class="st0" d="M173.8,320.4c-.1,0-.3,0-.4,0h66.9s-66.5,0-66.5,0Z"/>
    </g>
  </g>
  <rect class="st1" x="105.3" y="28.5" width="301.3" height="134.5" rx="67.3" ry="67.3"/>
  <rect class="st1" x="268.2" y="187.1" width="137.8" height="137.8" rx="65.8" ry="65.8"/>
  <rect class="st1" x="105.9" y="181.4" width="190.4" height="148" rx="65.8" ry="65.8"/>
  <rect class="st1" x="98" y="329.4" width="163.2" height="163.2" rx="65.8" ry="65.8"/>
</svg>