<?xml version="1.0" encoding="UTF-8"?>
<svg id="Capa_1" xmlns="http://www.w3.org/2000/svg" version="1.1" viewBox="0 0 512 512">
  <!-- Generator: Adobe Illustrator 29.3.1, SVG Export Plug-In . SVG Version: 2.1.0 Build 151)  -->
  <defs>
    <style>
      .st0 {
        fill: #e5e5e5;
      }

      .st1 {
        fill: #555;
      }
    </style>
  </defs>
  <path class="st1" d="M0,0h512v512H0V0Z"/>
  <path class="st0" d="M343.9,400c10.3,16.8,23.7,29.2,47.5,29.2s32.7-10,32.7-23.7-13.1-22.3-35-31.9l-12-5.2c-34.7-14.8-57.8-33.3-57.8-72.5s27.5-63.6,70.5-63.6,52.6,10.6,68.4,38.5l-37.5,24.1c-8.2-14.8-17.1-20.6-31-20.6s-23,8.9-23,20.6,8.9,20.3,29.6,29.2l12,5.2c40.9,17.5,64,35.4,64,75.6s-34,67-79.7,67-73.5-21.3-87.7-49.2l39.1-22.7ZM174,404.2c7.6,13.4,14.4,24.7,31,24.7s25.8-6.2,25.8-30.2v-163.6h48.1v164.2c0,49.8-29.2,72.5-71.8,72.5s-60.8-19.9-72.2-43.9l39.2-23.7Z"/>
</svg>