<svg width="207" height="53" viewBox="0 0 207 53" fill="none" xmlns="http://www.w3.org/2000/svg">
    <g clip-path="url(#clip0_116_1844)">
        <path d="M14.4291 2.38171L14.8851 8.7653C17.8033 3.65845 23.1838 1.01379 29.0202 1.01379C40.7842 1.01379 46.2559 10.6804 46.2559 21.6237V50.9882H31.3912V23.7211C31.3912 20.8941 30.7529 18.6143 29.4762 16.8816C28.1082 15.2401 26.2844 14.4193 24.0045 14.4193C18.9888 14.4193 15.6146 18.5231 15.6146 23.4476V50.9882H0.75V2.38171H14.4291Z" fill="currentColor"></path>
        <path d="M79.9217 0.937622C94.2923 0.937622 105.41 11.6985 105.41 26.5632C105.41 41.4278 94.2923 52.2799 79.5569 52.2799C64.8214 52.2799 54.0681 41.6102 54.0681 26.7456C54.0681 11.8809 65.1862 0.937622 79.9217 0.937622ZM68.53 26.6468C68.53 28.729 69.0088 30.6441 70.0499 32.316C71.8586 35.6522 75.5595 37.8181 79.7393 37.8181C86.67 37.8181 90.9486 32.3996 90.9486 26.6468C90.9486 24.4809 90.4698 22.5658 89.5198 20.8103C87.43 17.4742 84.109 15.3919 79.7393 15.3919C72.7097 15.3919 68.53 20.8103 68.53 26.6392V26.6468Z" fill="currentColor"></path>
        <path d="M128.239 2.38147V29.3749C128.239 34.2994 130.428 38.9503 135.991 38.9503C141.554 38.9503 143.742 34.4818 143.742 29.3749V2.38147H158.607V29.1014C158.607 42.6893 150.217 52.3559 135.9 52.3559C121.582 52.3559 113.375 43.0541 113.375 29.1014V2.38147H128.239Z" fill="currentColor"></path>
        <path d="M178.761 36.4882C180.038 39.5888 183.23 41.1391 186.421 41.1391C188.975 41.1391 192.44 40.2272 192.44 37.0354C192.44 35.8498 191.893 34.9379 190.799 34.2995C189.613 33.6612 187.698 33.114 184.962 32.658L182.774 32.2933C174.566 30.8342 166.359 26.6392 166.359 17.155C166.359 6.39413 176.025 1.01367 185.965 1.01367C194.72 1.01367 203.475 4.93502 206.028 14.0544L192.44 16.5167C191.893 15.1488 191.072 14.1456 189.978 13.3249C188.792 12.5953 187.516 12.2306 185.965 12.2306C183.503 12.2306 180.585 13.1425 180.585 16.0607C180.585 17.0638 181.132 17.8846 182.135 18.5229C183.138 19.1613 185.053 19.7085 187.88 20.1644L190.069 20.5292C198.459 21.9883 206.758 26.0009 206.758 35.6675C206.758 46.8843 196.635 52.356 186.33 52.356C177.302 52.356 167.909 48.2522 165.082 38.9504L178.761 36.4882Z" fill="currentColor"></path>
    </g>
    <defs>
        <clipPath id="clip0_116_1844">
            <rect width="206" height="51.4183" fill="white" transform="translate(0.75 0.937622)"></rect>
        </clipPath>
    </defs>
</svg>
