<?xml version="1.0" encoding="UTF-8"?>
<svg id="Layer_1" xmlns="http://www.w3.org/2000/svg" version="1.1" viewBox="0 0 24 24">
  <!-- Generator: Adobe Illustrator 29.3.1, SVG Export Plug-In . SVG Version: 2.1.0 Build 151)  -->
  <defs>
    <style>
      .st0 {
        fill: none;
        stroke: #000;
        stroke-linecap: round;
        stroke-linejoin: round;
        stroke-width: 2px;
      }
    </style>
  </defs>
  <path class="st0" d="M12,15.5v7l-7-7M5,15.5v-7h7M5,15.5h14l-7-7M12,8.5h7V1.5H5l7,7Z"/>
  <rect x="12" y="1.8" width="6.8" height="6"/>
  <rect x="5.6" y="9.4" width="6.8" height="6.2"/>
  <rect x="7" y="16" width="4.6" height="2.1"/>
  <rect x="10.4" y="18.1" width="2" height="3.5"/>
  <rect x="12" y="9.6" width="2.1" height="5.7"/>
  <rect x="12.1" y="11.7" width="3.6" height="3.6"/>
  <rect x="8.7" y="1.6" width="3.6" height="3.8"/>
  <rect x="10.4" y="4.8" width="2.2" height="4.3"/>
  <rect x="6.8" y="1.6" width="3" height="2.3"/>
  <rect x="8.7" y="17.4" width="2.3" height="2.3"/>
  <rect x="14.7" y="13.3" width="2.1" height="1.6"/>
</svg>