<?xml version="1.0" encoding="UTF-8"?>
<svg id="Layer_1" xmlns="http://www.w3.org/2000/svg" version="1.1" viewBox="0 0 24 24">
  <!-- Generator: Adobe Illustrator 29.3.1, SVG Export Plug-In . SVG Version: 2.1.0 Build 151)  -->
  <g id="Git">
    <path d="M23.6,10.9L13.1.4c-.6-.6-1.5-.6-2.1,0l-2,2c-.2.2-.2.5,0,.7,0,0,0,0,0,0l1.8,1.9c.1.1.4.2.5.1,1-.4,2.2.1,2.6,1.1,0,.2.1.5.1.7,0,.3,0,.5-.1.7,0,.2,0,.4.1.5l1.8,1.7c.1.1.4.2.5.1,1-.4,2.2,0,2.6,1.1.4,1,0,2.2-1.1,2.6-1,.4-2.2,0-2.6-1.1,0-.2-.1-.5-.1-.7,0-.2,0-.5.1-.7,0-.2,0-.4-.1-.5l-1.7-1.7c-.2-.2-.5-.2-.7,0,0,0-.1.2-.1.3v5.3c0,.2.1.4.3.5,1,.4,1.5,1.6,1,2.6-.4,1-1.6,1.5-2.6,1s-1.5-1.6-1-2.6c.2-.5.6-.8,1-1,.2,0,.3-.3.3-.5v-5.4c0-.2-.1-.4-.3-.5-1-.4-1.5-1.6-1.1-2.6,0-.2,0-.4-.1-.5l-1.8-1.8c-.2-.2-.5-.2-.7,0,0,0,0,0,0,0L.5,10.9c-.6.6-.6,1.5,0,2.1l10.5,10.5c.6.6,1.5.6,2.1,0l10.5-10.5c.6-.6.6-1.5,0-2.1h0Z"/>
  </g>
</svg>